<svg xmlns="http://www.w3.org/2000/svg" viewBox="0 0 659.38 115.33"><defs><style>.cls-1{fill:#009fd7;}.cls-1,.cls-2,.cls-3,.cls-4{fill-rule:evenodd;}.cls-2{fill:#00adee;}.cls-3{fill:#21b9ec;}.cls-4{fill:#44c7f4;}</style></defs><title>Recurso 1</title><g id="Capa_2" data-name="Capa 2"><g id="OBJECTS"><path class="cls-1" d="M0,70.72V34.91S30.78,43,58.48,35,119.7,4.38,119.7,4.38s21.21,16.31,45.15,23.47,45.48,9.5,72.18,1.28,39.65-18.39,39.65-18.39,24.65,16.4,50.62,17.51S404.08,17.7,422.89,5.57c30.41,20,69.3,17.7,113-5.57,14.55,14.13,91.87,35.79,123.46,31.43V99.17H0Z"/><path class="cls-2" d="M0,51.77c25.51-13.16,72.83-9.14,87.89-34.22,0,0,4.54,11,43.61,22.67s117.31-18.7,117.31-18.7S267.28,37.44,310,43.41s89.6-26.66,89.6-26.66,14.63,20.51,70.11,18.3S558.66,6.4,558.66,6.4A281.19,281.19,0,0,0,608.6,27.49a149.38,149.38,0,0,0,50.78,6.37v74.8H0Z"/><path class="cls-3" d="M659.38,34.57C646,33.07,616.25,26.86,601.81,9.5,572,53.81,493.09,43,461,18.24,404.7,58.13,343.53,40.83,322.18,16.8c-36.78,41-128.18,33.37-158,5.43C158.75,36.3,77.91,73.09,41.27,27.39,20.75,49.89,16.72,47.85,0,51.07V91.46H659.38Z"/><path class="cls-4" d="M0,75C13.36,73.9,43.13,69.5,57.57,57.18c29.87,31.44,107,16.13,139.07-1.42,56.33,28.3,118.19,14.05,139.54-3C364.41,90.3,460.59,66,494.54,43.91,516.82,57.85,576,82,621.19,45.32c11.63,14.55,25.58,19.59,38.19,25v45H0Z"/></g></g></svg>